<?xml version="1.0" encoding="utf-8"?>
<!-- Generator: Adobe Illustrator 16.0.0, SVG Export Plug-In . SVG Version: 6.00 Build 0)  -->
<!DOCTYPE svg PUBLIC "-//W3C//DTD SVG 1.1//EN" "http://www.w3.org/Graphics/SVG/1.1/DTD/svg11.dtd">
<svg version="1.1" id="Layer_1" xmlns="http://www.w3.org/2000/svg" xmlns:xlink="http://www.w3.org/1999/xlink" x="0px" y="0px"
	 width="3000px" height="3000px" viewBox="0 0 3000 3000" enable-background="new 0 0 3000 3000" xml:space="preserve">
<g>
	<g>
		<rect x="784.158" y="1075.248" fill="#17313B" width="136.634" height="849.504"/>
	</g>
	<g>
		<path fill="#17313B" d="M1399.01,1654.455c0,127.723-109.9,139.604-139.604,139.604c-80.198,0-98.021-77.227-98.021-124.752
			v-320.792h-136.634v323.763c0,80.197,26.733,145.545,68.317,193.068c38.614,38.613,98.02,59.406,163.366,59.406
			c47.525,0,109.901-11.881,139.604-47.525v47.525h136.635v-576.238h-136.635v305.941H1399.01z"/>
	</g>
	<g>
		<polygon fill="#17313B" points="1802.971,1143.564 1666.337,1143.564 1666.337,1348.514 1565.347,1348.514 1565.347,1485.148 
			1666.337,1485.148 1666.337,1924.752 1802.971,1924.752 1802.971,1485.148 1903.961,1485.148 1903.961,1348.514 
			1802.971,1348.514 		"/>
	</g>
	<g>
		<path fill="#17313B" d="M2331.684,1752.475c-29.703,26.732-68.317,41.584-109.901,41.584c-95.05,0-163.366-68.316-163.366-166.336
			s68.316-163.367,163.366-163.367c41.584,0,80.198,11.881,109.901,41.583l20.791,17.822l89.109-89.109l-20.792-20.792
			c-56.436-47.524-124.752-77.228-199.01-77.228c-169.307-2.971-294.06,118.812-294.06,291.089
			c0,166.336,127.723,294.059,294.06,294.059c77.228,0,148.515-26.732,204.95-77.227l20.793-20.793l-95.05-95.049L2331.684,1752.475
			z"/>
	</g>
	<g>
		<path fill="#17313B" d="M2931.684,1399.009c-38.614-38.613-86.139-59.405-148.516-59.405c-47.524,0-98.02,11.881-133.663,47.524
			v-311.881h-136.634v849.504h136.634v-320.791c0-127.724,95.05-139.605,124.753-139.605c80.197,0,80.197,77.228,80.197,124.753
			v335.643h136.634v-338.613C2994.06,1511.881,2976.238,1443.564,2931.684,1399.009z"/>
	</g>
	<circle fill="#FF3D2E" cx="2215.842" cy="1630.693" r="98.02"/>
	<g>
		<path fill="#17313B" d="M597.029,1710.891c-50.494,50.494-124.752,80.197-196.039,80.197
			c-154.456,0-264.356-118.811-264.356-282.178c0-163.366,109.901-282.178,261.386-282.178c71.287,0,139.604,29.703,196.04,80.198
			l20.792,20.792l89.109-89.108l-20.793-20.792c-77.228-77.229-178.218-118.813-285.148-118.813
			C172.277,1101.98,5.94,1277.227,5.94,1511.881c0,234.654,166.337,409.9,392.079,409.9c109.901,0,213.861-41.584,285.148-118.811
			l20.793-20.793l-89.109-95.049L597.029,1710.891z"/>
	</g>
</g>
<path display="none" fill="#4385F4" d="M190.099,1624.753c0,0-23.762-2.971-23.762,20.792v98.02h160.396v29.703
	c0,0,0,14.852-14.852,14.852H163.366v127.723h178.218c0,0,106.931-17.822,109.901-127.723v-160.396H190.099V1624.753z
	 M445.545,1467.327H124.752C8.911,1494.06,5.94,1589.109,5.94,1589.109v320.792h124.753v-291.09
	c0-23.762,23.762-29.702,23.762-29.702h291.089V1467.327L445.545,1467.327z M870.297,1820.792
	c-8.91,5.94-14.852,8.911-17.822,11.881c-14.851,8.911-29.702,17.822-44.554,23.763c-20.792,8.911-38.614,11.881-53.466,11.881
	c-56.436,0-100.99-17.821-139.604-50.494c-38.614-32.674-56.436-77.229-56.436-127.724s17.821-92.079,50.495-130.692
	c32.673-35.644,74.257-56.436,121.782-56.436c20.792,0,41.584,2.97,62.376,11.881c29.703,8.911,50.495,23.763,71.287,41.584
	l-35.644,32.674c-14.852-11.882-32.674-23.763-50.495-29.703c-14.852-5.94-32.673-5.94-50.495-5.94
	c-32.673,0-62.376,14.851-83.168,41.584c-23.763,26.732-32.674,59.405-32.674,98.02s11.882,68.316,38.614,92.079
	s59.405,35.644,98.02,35.644c17.822,0,32.673-5.94,50.495-14.852c14.852-11.881,20.792-14.852,20.792-17.821v-77.228H712.871
	l14.852-47.525h142.574C870.297,1660.396,870.297,1820.792,870.297,1820.792z M1194.06,1725.742
	c0,38.614-11.882,68.317-38.614,98.021c-26.732,26.732-59.406,41.584-98.02,41.584c-35.644,0-68.316-14.852-95.05-41.584
	c-26.732-26.733-41.584-59.406-41.584-98.021c0-38.613,11.882-71.287,38.614-98.02s56.436-41.584,95.049-41.584
	c41.585,0,74.258,11.881,100.99,38.613C1179.208,1651.485,1194.06,1687.129,1194.06,1725.742z M1143.564,1725.742
	c0-23.762-8.911-47.524-26.732-65.347c-17.822-17.821-38.614-26.732-62.377-26.732c-23.762,0-44.555,8.911-59.405,26.732
	c-17.822,17.822-23.763,38.614-23.763,62.377c0,23.762,8.911,44.554,23.763,62.376c17.821,17.821,38.613,26.732,62.376,26.732
	c23.762,0,41.584-8.911,59.406-26.732C1134.653,1770.297,1143.564,1749.505,1143.564,1725.742L1143.564,1725.742z
	 M1514.852,1725.742c0,38.614-11.881,68.317-38.614,98.021c-26.732,26.732-59.405,41.584-98.02,41.584
	c-35.644,0-68.316-14.852-95.05-41.584c-26.732-26.733-41.584-59.406-41.584-98.021c0-38.613,11.881-71.287,38.614-98.02
	c26.732-26.732,56.436-41.584,95.05-41.584c41.584,0,74.257,11.881,100.989,38.613
	C1500,1651.485,1514.852,1687.129,1514.852,1725.742z M1464.356,1725.742c0-23.762-8.911-47.524-26.732-65.347
	c-17.822-17.821-38.614-26.732-62.376-26.732c-23.763,0-44.555,8.911-59.406,26.732c-17.822,17.822-23.763,38.614-23.763,62.377
	c0,23.762,8.911,44.554,23.763,62.376c17.821,17.821,38.613,26.732,62.376,26.732s41.584-8.911,59.406-26.732
	C1455.445,1770.297,1464.356,1749.505,1464.356,1725.742L1464.356,1725.742z M1808.911,1856.436l-47.524,5.94v-44.554l-8.911,11.881
	c-8.911,8.911-17.822,14.852-29.703,20.792c-14.852,5.94-32.673,11.881-50.495,11.881c-35.644,0-68.316-11.881-92.079-38.613
	s-38.614-59.406-38.614-95.05c0-38.614,11.881-71.287,38.614-98.02c23.763-26.733,53.465-41.584,92.079-41.584
	c20.792,0,38.613,2.97,53.465,8.91c11.882,5.94,20.793,11.882,26.733,17.822c2.97,2.97,5.94,5.94,8.911,11.881v-118.812l50.494-5.94
	L1808.911,1856.436z M1767.326,1728.713c0-26.732-8.91-47.524-26.732-65.347c-17.821-17.821-38.613-26.732-62.376-26.732
	c-26.732,0-47.524,8.911-62.376,26.732c-14.852,17.822-23.763,35.644-23.763,59.406c0,26.732,8.911,47.524,23.763,65.347
	c14.852,17.821,35.644,26.732,59.406,26.732c23.762,0,44.554-8.911,62.376-23.763
	C1755.445,1773.268,1767.326,1752.476,1767.326,1728.713L1767.326,1728.713z M2070.297,1559.406h-139.604v95.049h106.931v47.525
	h-106.931v154.455l-53.466,8.911v-356.436h181.188L2070.297,1559.406z M2180.198,1529.703l-32.673,41.584l-32.674-41.584
	l32.673-41.584C2150.495,1491.089,2180.198,1529.703,2180.198,1529.703z M2171.287,1856.436l-50.495,5.94V1600.99l50.495-8.911
	V1856.436L2171.287,1856.436z M2394.06,1592.079l-23.763,53.466c-2.971,0-5.94,0-8.911,0c-5.94,0-8.911,0-14.852,0
	s-8.911,2.97-14.852,5.94c-8.911,5.94-17.821,14.852-26.732,29.703c-8.911,17.821-11.881,35.644-11.881,53.465v121.782
	l-50.495,8.911V1603.96l44.555-8.91v53.465c5.94-8.911,11.881-17.821,17.821-29.703c8.911-8.91,17.821-17.821,29.703-20.792
	c5.94-2.97,17.821-2.97,32.673-5.94C2382.178,1592.079,2391.089,1589.109,2394.06,1592.079L2394.06,1592.079z M2759.406,1856.436
	l-50.495,5.94v-178.218c0-17.821-2.971-29.703-11.882-35.644c-5.939-8.911-17.821-11.881-32.673-11.881
	c-17.821,0-29.703,5.94-38.614,20.792c-5.939,8.911-8.91,20.792-8.91,29.703v169.307l-50.495,8.911v-181.188
	c0-14.852-2.971-26.732-11.882-35.644c-5.94-8.911-17.821-11.881-29.703-11.881l0,0c-17.821,0-29.702,5.94-38.613,20.792
	c-5.94,11.881-8.911,23.763-8.911,41.584v157.426l-50.495,8.911V1600.99l44.555-8.911v32.674c5.94-8.911,8.911-14.852,14.852-17.822
	c11.881-11.881,29.703-17.821,44.555-17.821c20.791,0,32.673,2.97,44.555,8.91c8.91,5.941,17.821,14.852,23.762,29.703
	c20.792-23.763,44.555-38.613,74.258-38.613s53.465,8.91,68.316,29.702c11.882,14.852,17.822,38.614,17.822,68.317V1856.436z
	 M2985.148,1776.237c0,23.763-8.91,44.555-26.732,59.406s-38.614,23.763-65.347,23.763c-20.792,0-35.644-5.941-53.466-14.852
	c-14.852-8.911-26.732-17.822-35.643-32.674l35.643-29.702c2.971,2.97,5.941,5.94,5.941,8.91
	c11.881,11.882,29.702,20.792,47.524,20.792c11.881,0,23.763-2.97,29.702-8.91c5.941-5.941,11.882-14.852,11.882-26.733
	c0-11.881-8.911-20.792-26.733-26.732c-32.673-8.911-50.494-14.852-53.465-17.821c-14.852-8.911-26.732-14.852-32.673-26.733
	c-8.911-11.881-11.882-23.762-11.882-44.555c0-23.762,8.911-41.584,23.763-56.436s35.644-20.792,59.406-20.792
	c17.821,0,32.673,2.971,47.524,11.882c14.852,8.91,26.732,14.852,32.674,26.732l-29.703,32.673
	c-2.971-2.97-8.911-8.91-14.852-11.881c-11.881-8.911-23.763-11.881-32.674-11.881c-8.91,0-17.821,2.97-26.732,5.94
	c-8.911,5.94-11.881,14.852-11.881,23.762c0,11.882,2.97,17.822,11.881,23.763c5.94,2.971,20.792,8.911,41.584,14.852
	c20.793,5.94,38.614,14.852,50.495,26.732C2979.208,1737.624,2985.148,1755.445,2985.148,1776.237z"/>
<g display="none">
	<title>Layer 1</title>
	<g id="Ebene_x25_201" display="inline">
		<g id="svg_1">
			<g id="svg_2">
				<g id="svg_3">
					<path id="svg_4" fill="#2E2D2D" d="M1716.832,1271.287h-112.871l-26.733,83.168h-59.405l112.871-326.732h62.376
						l112.871,326.732h-59.406L1716.832,1271.287z M1660.396,1087.129c0,0-5.941,32.673-14.852,50.495l-29.703,86.139h86.139
						l-29.703-86.139C1669.307,1119.802,1660.396,1087.129,1660.396,1087.129L1660.396,1087.129L1660.396,1087.129z"/>
				</g>
				<g id="svg_5">
					<path id="svg_6" fill="#2E2D2D" d="M1892.079,1030.693h103.96c35.645,0,50.495,2.97,65.347,8.91
						c32.673,14.852,53.466,44.555,53.466,89.109c0,38.614-20.792,74.258-53.466,89.108l0,0c0,0,5.94,5.941,11.882,14.852
						l65.346,121.782h-65.346l-65.347-121.782h-56.436v121.782h-59.406V1030.693L1892.079,1030.693L1892.079,1030.693z
						 M2004.95,1182.179c32.674,0,50.495-17.822,50.495-50.496c0-29.702-11.881-50.494-59.406-50.494h-44.554v100.99H2004.95
						L2004.95,1182.179z"/>
				</g>
				<g id="svg_7">
					<path id="svg_8" fill="#2E2D2D" d="M2239.604,1030.693h109.901c100.99,0,166.337,59.405,166.337,163.366
						c0,103.96-65.347,163.366-166.337,163.366h-109.901C2239.604,1354.455,2239.604,1030.693,2239.604,1030.693z M2346.535,1303.96
						c65.346,0,106.93-38.613,106.93-112.871c0-71.287-41.584-112.871-106.93-112.871h-47.525v222.772h47.525V1303.96z"/>
				</g>
				<g id="svg_9">
					<path id="svg_10" fill="#2E2D2D" d="M2619.802,1271.287c0,0,35.644,35.644,80.198,35.644c23.762,0,47.524-11.881,47.524-38.614
						c0-59.405-154.455-47.524-154.455-148.515c0-53.465,47.524-95.049,109.9-95.049c65.347,0,98.021,35.644,98.021,35.644
						l-26.732,47.524c0,0-29.703-29.703-71.288-29.703c-26.732,0-47.524,14.852-47.524,38.614
						c0,56.436,151.485,44.554,151.485,148.515c0,50.495-38.614,95.05-106.931,95.05c-71.287,0-112.871-44.555-112.871-44.555
						L2619.802,1271.287z"/>
				</g>
				<g id="svg_11">
					<path id="svg_12" fill="#49C5B6" d="M1051.485,1030.693l-53.466,225.742c-2.97,17.822-5.94,35.644-5.94,35.644l0,0
						c0,0,0-14.852-5.94-35.644l-56.436-225.742h-50.495l-59.406,225.742c-5.94,17.822-5.94,35.644-5.94,35.644l0,0
						c0,0,0-14.852-5.94-35.644l-38.614-169.307l-29.703,121.782l35.645,145.544h68.316l50.495-193.069
						c5.94-20.792,8.911-41.584,8.911-41.584l0,0c0,0,2.97,20.792,8.91,41.584l50.495,193.069h68.317l83.168-326.732
						L1051.485,1030.693L1051.485,1030.693z"/>
				</g>
				<g id="svg_13">
					<path id="svg_14" fill="#49C5B6" d="M1419.802,1030.693l-53.465,225.742c-2.971,17.822-5.94,35.644-5.94,35.644l0,0
						c0,0,0-14.852-5.941-35.644l-56.436-225.742h-50.495l-59.405,225.742c-5.941,17.822-5.941,35.644-5.941,35.644l0,0
						c0,0,0-14.852-5.94-35.644l-38.614-169.307l-29.702,121.782l35.644,145.544h68.316l50.495-193.069
						c5.94-20.792,8.911-41.584,8.911-41.584l0,0c0,0,2.971,20.792,8.91,41.584l50.496,193.069h65.346l83.169-326.732h-59.406
						C1419.802,1030.693,1419.802,1030.693,1419.802,1030.693z"/>
				</g>
				<g id="svg_15">
					<path id="svg_16" fill="#2E2D2D" d="M210.891,1271.287H98.02l-26.732,83.168H11.881l112.871-326.732h62.376L300,1354.455
						h-62.376L210.891,1271.287z M154.456,1087.129c0,0-5.941,32.673-14.852,50.495l-29.703,86.139h86.139l-29.703-86.139
						C160.396,1119.802,154.456,1087.129,154.456,1087.129L154.456,1087.129z"/>
				</g>
				<g id="svg_17">
					<path id="svg_18" fill="#2E2D2D" d="M620.792,1256.436c5.94,17.822,5.94,35.644,5.94,35.644l0,0c0,0,0-14.852,5.941-35.644
						l53.465-225.742h59.406l-83.169,326.732H594.06l-50.495-193.069c-5.94-20.792-8.911-41.584-8.911-41.584l0,0
						c0,0-2.97,20.792-8.911,41.584l-50.494,193.069h-68.317l-80.198-326.732h59.406l50.495,225.742
						c2.97,17.822,5.94,35.644,5.94,35.644l0,0c0,0,0-14.852,5.94-35.644l59.406-225.742h56.436L620.792,1256.436z"/>
				</g>
			</g>
			<g id="svg_19">
				<path id="svg_20" fill="#2E2D2D" d="M2934.654,1030.693c29.702,0,56.436,23.762,56.436,56.436
					c0,32.673-23.764,56.436-56.436,56.436c-29.703,0-56.437-23.763-56.437-56.436
					C2878.218,1054.455,2904.951,1030.693,2934.654,1030.693z M2934.654,1137.624c26.732,0,47.523-20.792,47.523-50.495
					s-20.791-50.495-47.523-50.495c-26.733,0-47.525,20.792-47.525,50.495C2887.129,1113.861,2907.921,1137.624,2934.654,1137.624z
					 M2916.832,1054.455h20.791c11.882,0,17.822,5.941,17.822,17.822c0,8.911-5.94,14.852-11.881,17.821l0,0c0,0,0,0,2.97,2.971
					l11.882,23.763h-8.912l-11.881-26.733h-14.852v26.733h-5.939V1054.455L2916.832,1054.455L2916.832,1054.455z M2937.624,1084.158
					c5.94,0,11.881-5.94,11.881-11.881c0-8.911-5.94-11.881-11.881-11.881h-11.882v23.762H2937.624z"/>
			</g>
		</g>
	</g>
	<g id="Ebene_x25_202" display="inline">
	</g>
</g>
</svg>
